STARTFONT 2.1
COMMENT AUTOMATICALLY GENERATED FILE. DO NOT EDIT!
COMMENT Generated with 'ucs2any clR6x12.bdf /usr/share/fonts/X11/util/map-ISO8859-2 ISO8859-2'
COMMENT from an ISO10646-1 encoded source BDF font.
COMMENT ucs2any by Ben Collver <collver1@attbi.com>, 2003, based on
COMMENT ucs2any.pl by Markus Kuhn <http://www.cl.cam.ac.uk/~mgk25/>, 2000.
COMMENT $XConsortium: clR6x12.bdf,v 1.2 94/04/11 12:08:30 gildea Exp $
COMMENT
COMMENT  Copyright 1989 Dale Schumacher, dal@syntel.mn.org
COMMENT                 399 Beacon Ave.
COMMENT                 St. Paul, MN  55104-3527
COMMENT
COMMENT  Permission to use, copy, modify, and distribute this software and
COMMENT  its documentation for any purpose and without fee is hereby
COMMENT  granted, provided that the above copyright notice appear in all
COMMENT  copies and that both that copyright notice and this permission
COMMENT  notice appear in supporting documentation, and that the name of
COMMENT  Dale Schumacher not be used in advertising or publicity pertaining to
COMMENT  distribution of the software without specific, written prior
COMMENT  permission.  Dale Schumacher makes no representations about the
COMMENT  suitability of this software for any purpose.  It is provided "as
COMMENT  is" without express or implied warranty.
COMMENT
COMMENT
COMMENT  Modified by Robert Brady, <rwb197@ecs.soton.ac.uk>
COMMENT
FONT -Schumacher-Clean-Medium-R-Normal--12-120-75-75-C-60-ISO8859-2
SIZE 12 75 75
FONTBOUNDINGBOX 6 12 0 -3
STARTPROPERTIES 21
FONTNAME_REGISTRY ""
FOUNDRY "Schumacher"
FAMILY_NAME "Clean"
WEIGHT_NAME "Medium"
SLANT "R"
SETWIDTH_NAME "Normal"
ADD_STYLE_NAME ""
PIXEL_SIZE 12
POINT_SIZE 120
RESOLUTION_X 75
RESOLUTION_Y 75
SPACING "C"
AVERAGE_WIDTH 60
CHARSET_REGISTRY "ISO8859"
CHARSET_ENCODING "2"
FONT_ASCENT 9
FONT_DESCENT 3
DEFAULT_CHAR 0
COPYRIGHT "Copyright 1989 Dale Schumacher, 1999 Robert Brady."
CAP_HEIGHT 8
X_HEIGHT 5
ENDPROPERTIES
CHARS 223
STARTCHAR defaultchar
ENCODING 0
SWIDTH 480 0
DWIDTH 6 0
BBX 6 12 0 -3
BITMAP
00
00
A8
00
88
00
88
00
A8
00
00
00
ENDCHAR
STARTCHAR uni25C6
ENCODING 1
SWIDTH 480 0
DWIDTH 6 0
BBX 6 12 0 -3
BITMAP
00
00
00
00
20
70
F8
70
20
00
00
00
ENDCHAR
STARTCHAR shade
ENCODING 2
SWIDTH 480 0
DWIDTH 6 0
BBX 6 12 0 -3
BITMAP
A8
54
A8
54
A8
54
A8
54
A8
54
A8
54
ENDCHAR
STARTCHAR uni2409
ENCODING 3
SWIDTH 480 0
DWIDTH 6 0
BBX 6 12 0 -3
BITMAP
00
A0
A0
E0
A0
BC
08
08
08
08
00
00
ENDCHAR
STARTCHAR uni240C
ENCODING 4
SWIDTH 480 0
DWIDTH 6 0
BBX 6 12 0 -3
BITMAP
00
E0
80
C0
9C
90
1C
10
10
00
00
00
ENDCHAR
STARTCHAR uni240D
ENCODING 5
SWIDTH 480 0
DWIDTH 6 0
BBX 6 12 0 -3
BITMAP
00
60
80
80
98
74
18
14
14
00
00
00
ENDCHAR
STARTCHAR uni240A
ENCODING 6
SWIDTH 480 0
DWIDTH 6 0
BBX 6 12 0 -3
BITMAP
00
80
80
80
9C
F0
18
10
10
00
00
00
ENDCHAR
STARTCHAR degree
ENCODING 7
SWIDTH 480 0
DWIDTH 6 0
BBX 6 12 0 -3
BITMAP
00
30
48
48
30
00
00
00
00
00
00
00
ENDCHAR
STARTCHAR plusminus
ENCODING 8
SWIDTH 480 0
DWIDTH 6 0
BBX 6 12 0 -3
BITMAP
00
00
20
20
F8
20
20
00
F8
00
00
00
ENDCHAR
STARTCHAR uni2424
ENCODING 9
SWIDTH 480 0
DWIDTH 6 0
BBX 6 12 0 -3
BITMAP
A0
E0
E0
E0
B0
10
10
10
1C
00
00
00
ENDCHAR
STARTCHAR uni240B
ENCODING 10
SWIDTH 480 0
DWIDTH 6 0
BBX 6 12 0 -3
BITMAP
00
A0
A0
A0
5C
48
08
08
08
00
00
00
ENDCHAR
STARTCHAR SF040000
ENCODING 11
SWIDTH 480 0
DWIDTH 6 0
BBX 6 12 0 -3
BITMAP
20
20
20
20
20
20
E0
00
00
00
00
00
ENDCHAR
STARTCHAR SF030000
ENCODING 12
SWIDTH 480 0
DWIDTH 6 0
BBX 6 12 0 -3
BITMAP
00
00
00
00
00
00
E0
20
20
20
20
20
ENDCHAR
STARTCHAR SF010000
ENCODING 13
SWIDTH 480 0
DWIDTH 6 0
BBX 6 12 0 -3
BITMAP
00
00
00
00
00
00
3F
20
20
20
20
20
ENDCHAR
STARTCHAR SF020000
ENCODING 14
SWIDTH 480 0
DWIDTH 6 0
BBX 6 12 0 -3
BITMAP
20
20
20
20
20
20
3F
00
00
00
00
00
ENDCHAR
STARTCHAR SF050000
ENCODING 15
SWIDTH 480 0
DWIDTH 6 0
BBX 6 12 0 -3
BITMAP
20
20
20
20
20
20
FF
20
20
20
20
20
ENDCHAR
STARTCHAR uni23BA
ENCODING 16
SWIDTH 480 0
DWIDTH 6 0
BBX 6 12 0 -3
BITMAP
FC
00
00
00
00
00
00
00
00
00
00
00
ENDCHAR
STARTCHAR uni23BB
ENCODING 17
SWIDTH 480 0
DWIDTH 6 0
BBX 6 12 0 -3
BITMAP
00
00
00
FC
00
00
00
00
00
00
00
00
ENDCHAR
STARTCHAR SF100000
ENCODING 18
SWIDTH 480 0
DWIDTH 6 0
BBX 6 12 0 -3
BITMAP
00
00
00
00
00
00
FC
00
00
00
00
00
ENDCHAR
STARTCHAR uni23BC
ENCODING 19
SWIDTH 480 0
DWIDTH 6 0
BBX 6 12 0 -3
BITMAP
00
00
00
00
00
00
00
00
FC
00
00
00
ENDCHAR
STARTCHAR uni23BD
ENCODING 20
SWIDTH 480 0
DWIDTH 6 0
BBX 6 12 0 -3
BITMAP
00
00
00
00
00
00
00
00
00
00
00
FC
ENDCHAR
STARTCHAR SF080000
ENCODING 21
SWIDTH 480 0
DWIDTH 6 0
BBX 6 12 0 -3
BITMAP
20
20
20
20
20
20
3F
20
20
20
20
20
ENDCHAR
STARTCHAR SF090000
ENCODING 22
SWIDTH 480 0
DWIDTH 6 0
BBX 6 12 0 -3
BITMAP
20
20
20
20
20
20
E0
20
20
20
20
20
ENDCHAR
STARTCHAR SF070000
ENCODING 23
SWIDTH 480 0
DWIDTH 6 0
BBX 6 12 0 -3
BITMAP
20
20
20
20
20
20
FF
00
00
00
00
00
ENDCHAR
STARTCHAR SF060000
ENCODING 24
SWIDTH 480 0
DWIDTH 6 0
BBX 6 12 0 -3
BITMAP
00
00
00
00
00
00
FF
20
20
20
20
20
ENDCHAR
STARTCHAR SF110000
ENCODING 25
SWIDTH 480 0
DWIDTH 6 0
BBX 6 12 0 -3
BITMAP
20
20
20
20
20
20
20
20
20
20
20
20
ENDCHAR
STARTCHAR lessequal
ENCODING 26
SWIDTH 480 0
DWIDTH 6 0
BBX 6 12 0 -3
BITMAP
00
00
18
60
80
60
18
00
F8
00
00
00
ENDCHAR
STARTCHAR greaterequal
ENCODING 27
SWIDTH 480 0
DWIDTH 6 0
BBX 6 12 0 -3
BITMAP
00
00
C0
30
08
30
C0
00
F8
00
00
00
ENDCHAR
STARTCHAR pi
ENCODING 28
SWIDTH 480 0
DWIDTH 6 0
BBX 6 12 0 -3
BITMAP
00
00
00
00
F8
88
88
88
88
00
00
00
ENDCHAR
STARTCHAR notequal
ENCODING 29
SWIDTH 480 0
DWIDTH 6 0
BBX 6 12 0 -3
BITMAP
00
00
10
10
F8
20
F8
40
40
00
00
00
ENDCHAR
STARTCHAR sterling
ENCODING 30
SWIDTH 480 0
DWIDTH 6 0
BBX 6 12 0 -3
BITMAP
00
30
48
40
E0
40
40
48
B0
00
00
00
ENDCHAR
STARTCHAR periodcentered
ENCODING 31
SWIDTH 480 0
DWIDTH 6 0
BBX 6 12 0 -3
BITMAP
00
00
00
00
00
00
30
00
00
00
00
00
ENDCHAR
STARTCHAR space
ENCODING 32
SWIDTH 480 0
DWIDTH 6 0
BBX 6 12 0 -3
BITMAP
00
00
00
00
00
00
00
00
00
00
00
00
ENDCHAR
STARTCHAR exclam
ENCODING 33
SWIDTH 480 0
DWIDTH 6 0
BBX 6 12 0 -3
BITMAP
00
20
20
20
20
20
20
00
20
00
00
00
ENDCHAR
STARTCHAR quotedbl
ENCODING 34
SWIDTH 480 0
DWIDTH 6 0
BBX 6 12 0 -3
BITMAP
00
50
50
50
00
00
00
00
00
00
00
00
ENDCHAR
STARTCHAR numbersign
ENCODING 35
SWIDTH 480 0
DWIDTH 6 0
BBX 6 12 0 -3
BITMAP
00
00
50
50
F8
50
F8
50
50
00
00
00
ENDCHAR
STARTCHAR dollar
ENCODING 36
SWIDTH 480 0
DWIDTH 6 0
BBX 6 12 0 -3
BITMAP
00
00
20
78
A0
70
28
F0
20
00
00
00
ENDCHAR
STARTCHAR percent
ENCODING 37
SWIDTH 480 0
DWIDTH 6 0
BBX 6 12 0 -3
BITMAP
00
00
C0
C8
10
20
40
98
18
00
00
00
ENDCHAR
STARTCHAR ampersand
ENCODING 38
SWIDTH 480 0
DWIDTH 6 0
BBX 6 12 0 -3
BITMAP
00
00
70
80
80
40
A8
90
68
00
00
00
ENDCHAR
STARTCHAR quotesingle
ENCODING 39
SWIDTH 480 0
DWIDTH 6 0
BBX 6 12 0 -3
BITMAP
00
20
20
20
00
00
00
00
00
00
00
00
ENDCHAR
STARTCHAR parenleft
ENCODING 40
SWIDTH 480 0
DWIDTH 6 0
BBX 6 12 0 -3
BITMAP
08
10
10
20
20
20
20
20
10
10
08
00
ENDCHAR
STARTCHAR parenright
ENCODING 41
SWIDTH 480 0
DWIDTH 6 0
BBX 6 12 0 -3
BITMAP
40
20
20
10
10
10
10
10
20
20
40
00
ENDCHAR
STARTCHAR asterisk
ENCODING 42
SWIDTH 480 0
DWIDTH 6 0
BBX 6 12 0 -3
BITMAP
00
00
00
20
A8
70
A8
20
00
00
00
00
ENDCHAR
STARTCHAR plus
ENCODING 43
SWIDTH 480 0
DWIDTH 6 0
BBX 6 12 0 -3
BITMAP
00
00
00
20
20
F8
20
20
00
00
00
00
ENDCHAR
STARTCHAR comma
ENCODING 44
SWIDTH 480 0
DWIDTH 6 0
BBX 6 12 0 -3
BITMAP
00
00
00
00
00
00
00
30
30
20
40
00
ENDCHAR
STARTCHAR hyphen
ENCODING 45
SWIDTH 480 0
DWIDTH 6 0
BBX 6 12 0 -3
BITMAP
00
00
00
00
00
F8
00
00
00
00
00
00
ENDCHAR
STARTCHAR period
ENCODING 46
SWIDTH 480 0
DWIDTH 6 0
BBX 6 12 0 -3
BITMAP
00
00
00
00
00
00
00
30
30
00
00
00
ENDCHAR
STARTCHAR slash
ENCODING 47
SWIDTH 480 0
DWIDTH 6 0
BBX 6 12 0 -3
BITMAP
08
08
10
10
20
20
40
40
80
80
00
00
ENDCHAR
STARTCHAR zero
ENCODING 48
SWIDTH 480 0
DWIDTH 6 0
BBX 6 12 0 -3
BITMAP
00
70
88
98
A8
C8
88
88
70
00
00
00
ENDCHAR
STARTCHAR one
ENCODING 49
SWIDTH 480 0
DWIDTH 6 0
BBX 6 12 0 -3
BITMAP
00
10
30
10
10
10
10
10
10
00
00
00
ENDCHAR
STARTCHAR two
ENCODING 50
SWIDTH 480 0
DWIDTH 6 0
BBX 6 12 0 -3
BITMAP
00
70
88
08
10
20
40
80
F8
00
00
00
ENDCHAR
STARTCHAR three
ENCODING 51
SWIDTH 480 0
DWIDTH 6 0
BBX 6 12 0 -3
BITMAP
00
70
88
08
30
08
08
88
70
00
00
00
ENDCHAR
STARTCHAR four
ENCODING 52
SWIDTH 480 0
DWIDTH 6 0
BBX 6 12 0 -3
BITMAP
00
10
30
30
50
50
F8
10
38
00
00
00
ENDCHAR
STARTCHAR five
ENCODING 53
SWIDTH 480 0
DWIDTH 6 0
BBX 6 12 0 -3
BITMAP
00
F8
80
80
F0
08
08
88
70
00
00
00
ENDCHAR
STARTCHAR six
ENCODING 54
SWIDTH 480 0
DWIDTH 6 0
BBX 6 12 0 -3
BITMAP
00
30
40
80
F0
88
88
88
70
00
00
00
ENDCHAR
STARTCHAR seven
ENCODING 55
SWIDTH 480 0
DWIDTH 6 0
BBX 6 12 0 -3
BITMAP
00
F8
88
08
08
10
10
20
20
00
00
00
ENDCHAR
STARTCHAR eight
ENCODING 56
SWIDTH 480 0
DWIDTH 6 0
BBX 6 12 0 -3
BITMAP
00
70
88
88
70
88
88
88
70
00
00
00
ENDCHAR
STARTCHAR nine
ENCODING 57
SWIDTH 480 0
DWIDTH 6 0
BBX 6 12 0 -3
BITMAP
00
70
88
88
88
78
08
10
60
00
00
00
ENDCHAR
STARTCHAR colon
ENCODING 58
SWIDTH 480 0
DWIDTH 6 0
BBX 6 12 0 -3
BITMAP
00
00
00
30
30
00
00
30
30
00
00
00
ENDCHAR
STARTCHAR semicolon
ENCODING 59
SWIDTH 480 0
DWIDTH 6 0
BBX 6 12 0 -3
BITMAP
00
00
00
30
30
00
00
30
30
20
40
00
ENDCHAR
STARTCHAR less
ENCODING 60
SWIDTH 480 0
DWIDTH 6 0
BBX 6 12 0 -3
BITMAP
00
00
00
0C
30
C0
30
0C
00
00
00
00
ENDCHAR
STARTCHAR equal
ENCODING 61
SWIDTH 480 0
DWIDTH 6 0
BBX 6 12 0 -3
BITMAP
00
00
00
00
F8
00
F8
00
00
00
00
00
ENDCHAR
STARTCHAR greater
ENCODING 62
SWIDTH 480 0
DWIDTH 6 0
BBX 6 12 0 -3
BITMAP
00
00
00
C0
30
0C
30
C0
00
00
00
00
ENDCHAR
STARTCHAR question
ENCODING 63
SWIDTH 480 0
DWIDTH 6 0
BBX 6 12 0 -3
BITMAP
00
70
88
08
10
20
20
00
20
00
00
00
ENDCHAR
STARTCHAR at
ENCODING 64
SWIDTH 480 0
DWIDTH 6 0
BBX 6 12 0 -3
BITMAP
00
00
70
88
B8
B8
B0
80
70
00
00
00
ENDCHAR
STARTCHAR A
ENCODING 65
SWIDTH 480 0
DWIDTH 6 0
BBX 6 12 0 -3
BITMAP
00
00
20
50
88
88
F8
88
88
00
00
00
ENDCHAR
STARTCHAR B
ENCODING 66
SWIDTH 480 0
DWIDTH 6 0
BBX 6 12 0 -3
BITMAP
00
00
F0
88
88
F0
88
88
F0
00
00
00
ENDCHAR
STARTCHAR C
ENCODING 67
SWIDTH 480 0
DWIDTH 6 0
BBX 6 12 0 -3
BITMAP
00
00
70
88
80
80
80
88
70
00
00
00
ENDCHAR
STARTCHAR D
ENCODING 68
SWIDTH 480 0
DWIDTH 6 0
BBX 6 12 0 -3
BITMAP
00
00
E0
90
88
88
88
90
E0
00
00
00
ENDCHAR
STARTCHAR E
ENCODING 69
SWIDTH 480 0
DWIDTH 6 0
BBX 6 12 0 -3
BITMAP
00
00
F8
80
80
F0
80
80
F8
00
00
00
ENDCHAR
STARTCHAR F
ENCODING 70
SWIDTH 480 0
DWIDTH 6 0
BBX 6 12 0 -3
BITMAP
00
00
F8
80
80
F0
80
80
80
00
00
00
ENDCHAR
STARTCHAR G
ENCODING 71
SWIDTH 480 0
DWIDTH 6 0
BBX 6 12 0 -3
BITMAP
00
00
70
88
80
98
88
88
78
00
00
00
ENDCHAR
STARTCHAR H
ENCODING 72
SWIDTH 480 0
DWIDTH 6 0
BBX 6 12 0 -3
BITMAP
00
00
88
88
88
F8
88
88
88
00
00
00
ENDCHAR
STARTCHAR I
ENCODING 73
SWIDTH 480 0
DWIDTH 6 0
BBX 6 12 0 -3
BITMAP
00
00
F8
20
20
20
20
20
F8
00
00
00
ENDCHAR
STARTCHAR J
ENCODING 74
SWIDTH 480 0
DWIDTH 6 0
BBX 6 12 0 -3
BITMAP
00
00
38
08
08
08
88
88
70
00
00
00
ENDCHAR
STARTCHAR K
ENCODING 75
SWIDTH 480 0
DWIDTH 6 0
BBX 6 12 0 -3
BITMAP
00
00
88
90
A0
C0
A0
90
88
00
00
00
ENDCHAR
STARTCHAR L
ENCODING 76
SWIDTH 480 0
DWIDTH 6 0
BBX 6 12 0 -3
BITMAP
00
00
80
80
80
80
80
80
F8
00
00
00
ENDCHAR
STARTCHAR M
ENCODING 77
SWIDTH 480 0
DWIDTH 6 0
BBX 6 12 0 -3
BITMAP
00
00
88
D8
A8
A8
88
88
88
00
00
00
ENDCHAR
STARTCHAR N
ENCODING 78
SWIDTH 480 0
DWIDTH 6 0
BBX 6 12 0 -3
BITMAP
00
00
88
C8
C8
A8
98
98
88
00
00
00
ENDCHAR
STARTCHAR O
ENCODING 79
SWIDTH 480 0
DWIDTH 6 0
BBX 6 12 0 -3
BITMAP
00
00
70
88
88
88
88
88
70
00
00
00
ENDCHAR
STARTCHAR P
ENCODING 80
SWIDTH 480 0
DWIDTH 6 0
BBX 6 12 0 -3
BITMAP
00
00
F0
88
88
F0
80
80
80
00
00
00
ENDCHAR
STARTCHAR Q
ENCODING 81
SWIDTH 480 0
DWIDTH 6 0
BBX 6 12 0 -3
BITMAP
00
00
70
88
88
88
88
88
70
18
00
00
ENDCHAR
STARTCHAR R
ENCODING 82
SWIDTH 480 0
DWIDTH 6 0
BBX 6 12 0 -3
BITMAP
00
00
F0
88
88
F0
A0
90
88
00
00
00
ENDCHAR
STARTCHAR S
ENCODING 83
SWIDTH 480 0
DWIDTH 6 0
BBX 6 12 0 -3
BITMAP
00
00
70
88
80
70
08
88
70
00
00
00
ENDCHAR
STARTCHAR T
ENCODING 84
SWIDTH 480 0
DWIDTH 6 0
BBX 6 12 0 -3
BITMAP
00
00
F8
20
20
20
20
20
20
00
00
00
ENDCHAR
STARTCHAR U
ENCODING 85
SWIDTH 480 0
DWIDTH 6 0
BBX 6 12 0 -3
BITMAP
00
00
88
88
88
88
88
88
70
00
00
00
ENDCHAR
STARTCHAR V
ENCODING 86
SWIDTH 480 0
DWIDTH 6 0
BBX 6 12 0 -3
BITMAP
00
00
88
88
88
50
50
20
20
00
00
00
ENDCHAR
STARTCHAR W
ENCODING 87
SWIDTH 480 0
DWIDTH 6 0
BBX 6 12 0 -3
BITMAP
00
00
88
88
88
A8
A8
D8
88
00
00
00
ENDCHAR
STARTCHAR X
ENCODING 88
SWIDTH 480 0
DWIDTH 6 0
BBX 6 12 0 -3
BITMAP
00
00
88
88
50
20
50
88
88
00
00
00
ENDCHAR
STARTCHAR Y
ENCODING 89
SWIDTH 480 0
DWIDTH 6 0
BBX 6 12 0 -3
BITMAP
00
00
88
88
50
20
20
20
20
00
00
00
ENDCHAR
STARTCHAR Z
ENCODING 90
SWIDTH 480 0
DWIDTH 6 0
BBX 6 12 0 -3
BITMAP
00
00
F8
08
10
20
40
80
F8
00
00
00
ENDCHAR
STARTCHAR bracketleft
ENCODING 91
SWIDTH 480 0
DWIDTH 6 0
BBX 6 12 0 -3
BITMAP
38
20
20
20
20
20
20
20
20
20
38
00
ENDCHAR
STARTCHAR backslash
ENCODING 92
SWIDTH 480 0
DWIDTH 6 0
BBX 6 12 0 -3
BITMAP
80
80
40
40
20
20
10
10
08
08
00
00
ENDCHAR
STARTCHAR bracketright
ENCODING 93
SWIDTH 480 0
DWIDTH 6 0
BBX 6 12 0 -3
BITMAP
70
10
10
10
10
10
10
10
10
10
70
00
ENDCHAR
STARTCHAR asciicircum
ENCODING 94
SWIDTH 480 0
DWIDTH 6 0
BBX 6 12 0 -3
BITMAP
00
20
50
88
00
00
00
00
00
00
00
00
ENDCHAR
STARTCHAR underscore
ENCODING 95
SWIDTH 480 0
DWIDTH 6 0
BBX 6 12 0 -3
BITMAP
00
00
00
00
00
00
00
00
00
FC
00
00
ENDCHAR
STARTCHAR grave
ENCODING 96
SWIDTH 480 0
DWIDTH 6 0
BBX 6 12 0 -3
BITMAP
00
20
10
00
00
00
00
00
00
00
00
00
ENDCHAR
STARTCHAR a
ENCODING 97
SWIDTH 480 0
DWIDTH 6 0
BBX 6 12 0 -3
BITMAP
00
00
00
00
78
88
88
98
68
00
00
00
ENDCHAR
STARTCHAR b
ENCODING 98
SWIDTH 480 0
DWIDTH 6 0
BBX 6 12 0 -3
BITMAP
00
80
80
80
F0
88
88
88
F0
00
00
00
ENDCHAR
STARTCHAR c
ENCODING 99
SWIDTH 480 0
DWIDTH 6 0
BBX 6 12 0 -3
BITMAP
00
00
00
00
78
80
80
80
78
00
00
00
ENDCHAR
STARTCHAR d
ENCODING 100
SWIDTH 480 0
DWIDTH 6 0
BBX 6 12 0 -3
BITMAP
00
08
08
08
78
88
88
88
78
00
00
00
ENDCHAR
STARTCHAR e
ENCODING 101
SWIDTH 480 0
DWIDTH 6 0
BBX 6 12 0 -3
BITMAP
00
00
00
00
70
88
F8
80
70
00
00
00
ENDCHAR
STARTCHAR f
ENCODING 102
SWIDTH 480 0
DWIDTH 6 0
BBX 6 12 0 -3
BITMAP
00
38
40
40
F0
40
40
40
40
00
00
00
ENDCHAR
STARTCHAR g
ENCODING 103
SWIDTH 480 0
DWIDTH 6 0
BBX 6 12 0 -3
BITMAP
00
00
00
00
78
88
88
88
78
08
08
70
ENDCHAR
STARTCHAR h
ENCODING 104
SWIDTH 480 0
DWIDTH 6 0
BBX 6 12 0 -3
BITMAP
00
80
80
80
F0
88
88
88
88
00
00
00
ENDCHAR
STARTCHAR i
ENCODING 105
SWIDTH 480 0
DWIDTH 6 0
BBX 6 12 0 -3
BITMAP
00
20
20
00
60
20
20
20
70
00
00
00
ENDCHAR
STARTCHAR j
ENCODING 106
SWIDTH 480 0
DWIDTH 6 0
BBX 6 12 0 -3
BITMAP
00
08
08
00
38
08
08
08
08
08
08
70
ENDCHAR
STARTCHAR k
ENCODING 107
SWIDTH 480 0
DWIDTH 6 0
BBX 6 12 0 -3
BITMAP
00
40
40
40
48
50
60
50
48
00
00
00
ENDCHAR
STARTCHAR l
ENCODING 108
SWIDTH 480 0
DWIDTH 6 0
BBX 6 12 0 -3
BITMAP
00
60
20
20
20
20
20
20
70
00
00
00
ENDCHAR
STARTCHAR m
ENCODING 109
SWIDTH 480 0
DWIDTH 6 0
BBX 6 12 0 -3
BITMAP
00
00
00
00
D0
A8
A8
A8
88
00
00
00
ENDCHAR
STARTCHAR n
ENCODING 110
SWIDTH 480 0
DWIDTH 6 0
BBX 6 12 0 -3
BITMAP
00
00
00
00
B0
C8
88
88
88
00
00
00
ENDCHAR
STARTCHAR o
ENCODING 111
SWIDTH 480 0
DWIDTH 6 0
BBX 6 12 0 -3
BITMAP
00
00
00
00
70
88
88
88
70
00
00
00
ENDCHAR
STARTCHAR p
ENCODING 112
SWIDTH 480 0
DWIDTH 6 0
BBX 6 12 0 -3
BITMAP
00
00
00
00
F0
88
88
88
F0
80
80
80
ENDCHAR
STARTCHAR q
ENCODING 113
SWIDTH 480 0
DWIDTH 6 0
BBX 6 12 0 -3
BITMAP
00
00
00
00
78
88
88
88
78
08
08
08
ENDCHAR
STARTCHAR r
ENCODING 114
SWIDTH 480 0
DWIDTH 6 0
BBX 6 12 0 -3
BITMAP
00
00
00
00
58
60
40
40
40
00
00
00
ENDCHAR
STARTCHAR s
ENCODING 115
SWIDTH 480 0
DWIDTH 6 0
BBX 6 12 0 -3
BITMAP
00
00
00
00
78
80
70
08
F0
00
00
00
ENDCHAR
STARTCHAR t
ENCODING 116
SWIDTH 480 0
DWIDTH 6 0
BBX 6 12 0 -3
BITMAP
00
20
20
20
70
20
20
20
18
00
00
00
ENDCHAR
STARTCHAR u
ENCODING 117
SWIDTH 480 0
DWIDTH 6 0
BBX 6 12 0 -3
BITMAP
00
00
00
00
88
88
88
98
68
00
00
00
ENDCHAR
STARTCHAR v
ENCODING 118
SWIDTH 480 0
DWIDTH 6 0
BBX 6 12 0 -3
BITMAP
00
00
00
00
D8
50
50
20
20
00
00
00
ENDCHAR
STARTCHAR w
ENCODING 119
SWIDTH 480 0
DWIDTH 6 0
BBX 6 12 0 -3
BITMAP
00
00
00
00
88
A8
A8
A8
50
00
00
00
ENDCHAR
STARTCHAR x
ENCODING 120
SWIDTH 480 0
DWIDTH 6 0
BBX 6 12 0 -3
BITMAP
00
00
00
00
88
50
20
50
88
00
00
00
ENDCHAR
STARTCHAR y
ENCODING 121
SWIDTH 480 0
DWIDTH 6 0
BBX 6 12 0 -3
BITMAP
00
00
00
00
88
88
88
88
78
08
08
70
ENDCHAR
STARTCHAR z
ENCODING 122
SWIDTH 480 0
DWIDTH 6 0
BBX 6 12 0 -3
BITMAP
00
00
00
00
F8
10
20
40
F8
00
00
00
ENDCHAR
STARTCHAR braceleft
ENCODING 123
SWIDTH 480 0
DWIDTH 6 0
BBX 6 12 0 -3
BITMAP
08
10
10
10
10
20
10
10
10
10
08
00
ENDCHAR
STARTCHAR bar
ENCODING 124
SWIDTH 480 0
DWIDTH 6 0
BBX 6 12 0 -3
BITMAP
20
20
20
20
20
20
20
20
20
20
20
00
ENDCHAR
STARTCHAR braceright
ENCODING 125
SWIDTH 480 0
DWIDTH 6 0
BBX 6 12 0 -3
BITMAP
40
20
20
20
20
10
20
20
20
20
40
00
ENDCHAR
STARTCHAR asciitilde
ENCODING 126
SWIDTH 480 0
DWIDTH 6 0
BBX 6 12 0 -3
BITMAP
00
00
00
00
40
A8
10
00
00
00
00
00
ENDCHAR
STARTCHAR space
ENCODING 160
SWIDTH 480 0
DWIDTH 6 0
BBX 6 12 0 -3
BITMAP
00
00
00
00
00
00
00
00
00
00
00
00
ENDCHAR
STARTCHAR Aogonek
ENCODING 161
SWIDTH 480 0
DWIDTH 6 0
BBX 6 12 0 -3
BITMAP
00
00
20
50
88
88
F8
88
88
10
18
00
ENDCHAR
STARTCHAR breve
ENCODING 162
SWIDTH 480 0
DWIDTH 6 0
BBX 6 12 0 -3
BITMAP
00
48
30
00
00
00
00
00
00
00
00
00
ENDCHAR
STARTCHAR Lslash
ENCODING 163
SWIDTH 480 0
DWIDTH 6 0
BBX 6 12 0 -3
BITMAP
00
00
40
40
60
C0
40
40
7C
00
00
00
ENDCHAR
STARTCHAR currency
ENCODING 164
SWIDTH 480 0
DWIDTH 6 0
BBX 6 12 0 -3
BITMAP
00
00
00
00
88
70
50
70
88
00
00
00
ENDCHAR
STARTCHAR Lcaron
ENCODING 165
SWIDTH 480 0
DWIDTH 6 0
BBX 6 12 0 -3
BITMAP
50
20
80
80
80
80
80
80
F8
00
00
00
ENDCHAR
STARTCHAR Sacute
ENCODING 166
SWIDTH 480 0
DWIDTH 6 0
BBX 6 12 0 -3
BITMAP
10
20
00
70
80
70
08
88
70
00
00
00
ENDCHAR
STARTCHAR section
ENCODING 167
SWIDTH 480 0
DWIDTH 6 0
BBX 6 12 0 -3
BITMAP
30
48
40
30
48
48
48
30
08
48
30
00
ENDCHAR
STARTCHAR dieresis
ENCODING 168
SWIDTH 480 0
DWIDTH 6 0
BBX 6 12 0 -3
BITMAP
00
50
50
00
00
00
00
00
00
00
00
00
ENDCHAR
STARTCHAR Scaron
ENCODING 169
SWIDTH 480 0
DWIDTH 6 0
BBX 6 12 0 -3
BITMAP
50
20
00
70
80
70
08
88
70
00
00
00
ENDCHAR
STARTCHAR Scedilla
ENCODING 170
SWIDTH 480 0
DWIDTH 6 0
BBX 6 12 0 -3
BITMAP
00
00
70
88
80
70
08
88
70
20
60
00
ENDCHAR
STARTCHAR Tcaron
ENCODING 171
SWIDTH 480 0
DWIDTH 6 0
BBX 6 12 0 -3
BITMAP
50
20
00
F8
20
20
20
20
20
00
00
00
ENDCHAR
STARTCHAR Zacute
ENCODING 172
SWIDTH 480 0
DWIDTH 6 0
BBX 6 12 0 -3
BITMAP
10
20
00
F8
10
20
40
80
F8
00
00
00
ENDCHAR
STARTCHAR hyphen
ENCODING 173
SWIDTH 480 0
DWIDTH 6 0
BBX 6 12 0 -3
BITMAP
00
00
00
00
00
78
00
00
00
00
00
00
ENDCHAR
STARTCHAR Zcaron
ENCODING 174
SWIDTH 480 0
DWIDTH 6 0
BBX 6 12 0 -3
BITMAP
50
20
00
F8
10
20
40
80
F8
00
00
00
ENDCHAR
STARTCHAR Zdotaccent
ENCODING 175
SWIDTH 480 0
DWIDTH 6 0
BBX 6 12 0 -3
BITMAP
00
20
00
F8
10
20
40
80
F8
00
00
00
ENDCHAR
STARTCHAR degree
ENCODING 176
SWIDTH 480 0
DWIDTH 6 0
BBX 6 12 0 -3
BITMAP
00
30
48
48
30
00
00
00
00
00
00
00
ENDCHAR
STARTCHAR aogonek
ENCODING 177
SWIDTH 480 0
DWIDTH 6 0
BBX 6 12 0 -3
BITMAP
00
00
00
00
78
88
88
98
68
10
08
00
ENDCHAR
STARTCHAR ogonek
ENCODING 178
SWIDTH 480 0
DWIDTH 6 0
BBX 6 12 0 -3
BITMAP
00
00
00
00
00
00
00
00
00
20
40
30
ENDCHAR
STARTCHAR lslash
ENCODING 179
SWIDTH 480 0
DWIDTH 6 0
BBX 6 12 0 -3
BITMAP
00
60
20
20
30
60
20
20
70
00
00
00
ENDCHAR
STARTCHAR acute
ENCODING 180
SWIDTH 480 0
DWIDTH 6 0
BBX 6 12 0 -3
BITMAP
00
10
20
00
00
00
00
00
00
00
00
00
ENDCHAR
STARTCHAR lcaron
ENCODING 181
SWIDTH 480 0
DWIDTH 6 0
BBX 6 12 0 -3
BITMAP
50
20
00
20
20
20
20
20
10
00
00
00
ENDCHAR
STARTCHAR sacute
ENCODING 182
SWIDTH 480 0
DWIDTH 6 0
BBX 6 12 0 -3
BITMAP
00
10
20
00
78
80
70
08
F0
00
00
00
ENDCHAR
STARTCHAR caron
ENCODING 183
SWIDTH 480 0
DWIDTH 6 0
BBX 6 12 0 -3
BITMAP
00
50
20
00
00
00
00
00
00
00
00
00
ENDCHAR
STARTCHAR cedilla
ENCODING 184
SWIDTH 480 0
DWIDTH 6 0
BBX 6 12 0 -3
BITMAP
00
00
00
00
00
00
00
00
00
10
20
00
ENDCHAR
STARTCHAR scaron
ENCODING 185
SWIDTH 480 0
DWIDTH 6 0
BBX 6 12 0 -3
BITMAP
00
50
20
00
78
80
70
08
F0
00
00
00
ENDCHAR
STARTCHAR scedilla
ENCODING 186
SWIDTH 480 0
DWIDTH 6 0
BBX 6 12 0 -3
BITMAP
00
00
00
00
78
80
70
08
F0
20
60
00
ENDCHAR
STARTCHAR tcaron
ENCODING 187
SWIDTH 480 0
DWIDTH 6 0
BBX 6 12 0 -3
BITMAP
50
20
00
20
20
F8
20
20
18
00
00
00
ENDCHAR
STARTCHAR zacute
ENCODING 188
SWIDTH 480 0
DWIDTH 6 0
BBX 6 12 0 -3
BITMAP
00
10
20
00
F8
10
20
40
F8
00
00
00
ENDCHAR
STARTCHAR hungarumlaut
ENCODING 189
SWIDTH 480 0
DWIDTH 6 0
BBX 6 12 0 -3
BITMAP
00
48
90
00
00
00
00
00
00
00
00
00
ENDCHAR
STARTCHAR zcaron
ENCODING 190
SWIDTH 480 0
DWIDTH 6 0
BBX 6 12 0 -3
BITMAP
00
50
20
00
F8
10
20
40
F8
00
00
00
ENDCHAR
STARTCHAR zdotaccent
ENCODING 191
SWIDTH 480 0
DWIDTH 6 0
BBX 6 12 0 -3
BITMAP
00
00
20
00
F8
10
20
40
F8
00
00
00
ENDCHAR
STARTCHAR Racute
ENCODING 192
SWIDTH 480 0
DWIDTH 6 0
BBX 6 12 0 -3
BITMAP
10
20
00
F0
88
F0
A0
90
88
00
00
00
ENDCHAR
STARTCHAR Aacute
ENCODING 193
SWIDTH 480 0
DWIDTH 6 0
BBX 6 12 0 -3
BITMAP
10
20
00
70
88
88
F8
88
88
00
00
00
ENDCHAR
STARTCHAR Acircumflex
ENCODING 194
SWIDTH 480 0
DWIDTH 6 0
BBX 6 12 0 -3
BITMAP
20
50
00
70
88
88
F8
88
88
00
00
00
ENDCHAR
STARTCHAR Abreve
ENCODING 195
SWIDTH 480 0
DWIDTH 6 0
BBX 6 12 0 -3
BITMAP
88
70
00
70
88
88
F8
88
88
00
00
00
ENDCHAR
STARTCHAR Adieresis
ENCODING 196
SWIDTH 480 0
DWIDTH 6 0
BBX 6 12 0 -3
BITMAP
00
50
00
70
88
88
F8
88
88
00
00
00
ENDCHAR
STARTCHAR Lacute
ENCODING 197
SWIDTH 480 0
DWIDTH 6 0
BBX 6 12 0 -3
BITMAP
20
40
00
80
80
80
80
80
F8
00
00
00
ENDCHAR
STARTCHAR Cacute
ENCODING 198
SWIDTH 480 0
DWIDTH 6 0
BBX 6 12 0 -3
BITMAP
10
20
00
70
88
88
80
88
70
00
00
00
ENDCHAR
STARTCHAR Ccedilla
ENCODING 199
SWIDTH 480 0
DWIDTH 6 0
BBX 6 12 0 -3
BITMAP
00
00
70
88
80
80
80
88
70
20
40
00
ENDCHAR
STARTCHAR Ccaron
ENCODING 200
SWIDTH 480 0
DWIDTH 6 0
BBX 6 12 0 -3
BITMAP
50
20
00
70
88
88
80
88
70
00
00
00
ENDCHAR
STARTCHAR Eacute
ENCODING 201
SWIDTH 480 0
DWIDTH 6 0
BBX 6 12 0 -3
BITMAP
10
20
00
F8
80
F0
80
80
F8
00
00
00
ENDCHAR
STARTCHAR Eogonek
ENCODING 202
SWIDTH 480 0
DWIDTH 6 0
BBX 6 12 0 -3
BITMAP
00
00
00
F8
80
F0
80
80
F8
20
10
00
ENDCHAR
STARTCHAR Edieresis
ENCODING 203
SWIDTH 480 0
DWIDTH 6 0
BBX 6 12 0 -3
BITMAP
00
50
00
F8
80
F0
80
80
F8
00
00
00
ENDCHAR
STARTCHAR Ecaron
ENCODING 204
SWIDTH 480 0
DWIDTH 6 0
BBX 6 12 0 -3
BITMAP
50
20
00
F8
80
F0
80
80
F8
00
00
00
ENDCHAR
STARTCHAR Iacute
ENCODING 205
SWIDTH 480 0
DWIDTH 6 0
BBX 6 12 0 -3
BITMAP
10
20
00
F8
20
20
20
20
F8
00
00
00
ENDCHAR
STARTCHAR Icircumflex
ENCODING 206
SWIDTH 480 0
DWIDTH 6 0
BBX 6 12 0 -3
BITMAP
20
50
00
F8
20
20
20
20
F8
00
00
00
ENDCHAR
STARTCHAR Dcaron
ENCODING 207
SWIDTH 480 0
DWIDTH 6 0
BBX 6 12 0 -3
BITMAP
50
20
00
E0
90
88
88
90
E0
00
00
00
ENDCHAR
STARTCHAR Dcroat
ENCODING 208
SWIDTH 480 0
DWIDTH 6 0
BBX 6 12 0 -3
BITMAP
00
00
70
48
44
E4
44
48
70
00
00
00
ENDCHAR
STARTCHAR Nacute
ENCODING 209
SWIDTH 480 0
DWIDTH 6 0
BBX 6 12 0 -3
BITMAP
10
20
00
88
C8
A8
98
98
88
00
00
00
ENDCHAR
STARTCHAR Ncaron
ENCODING 210
SWIDTH 480 0
DWIDTH 6 0
BBX 6 12 0 -3
BITMAP
50
20
00
88
C8
A8
98
98
88
00
00
00
ENDCHAR
STARTCHAR Oacute
ENCODING 211
SWIDTH 480 0
DWIDTH 6 0
BBX 6 12 0 -3
BITMAP
10
20
00
70
88
88
88
88
70
00
00
00
ENDCHAR
STARTCHAR Ocircumflex
ENCODING 212
SWIDTH 480 0
DWIDTH 6 0
BBX 6 12 0 -3
BITMAP
20
50
00
70
88
88
88
88
70
00
00
00
ENDCHAR
STARTCHAR Ohungarumlaut
ENCODING 213
SWIDTH 480 0
DWIDTH 6 0
BBX 6 12 0 -3
BITMAP
48
90
00
70
88
88
88
88
70
00
00
00
ENDCHAR
STARTCHAR Odieresis
ENCODING 214
SWIDTH 480 0
DWIDTH 6 0
BBX 6 12 0 -3
BITMAP
00
50
00
70
88
88
88
88
70
00
00
00
ENDCHAR
STARTCHAR multiply
ENCODING 215
SWIDTH 480 0
DWIDTH 6 0
BBX 6 12 0 -3
BITMAP
00
00
00
00
88
50
20
50
88
00
00
00
ENDCHAR
STARTCHAR Rcaron
ENCODING 216
SWIDTH 480 0
DWIDTH 6 0
BBX 6 12 0 -3
BITMAP
50
20
00
F0
88
F0
A0
90
88
00
00
00
ENDCHAR
STARTCHAR Uring
ENCODING 217
SWIDTH 480 0
DWIDTH 6 0
BBX 6 12 0 -3
BITMAP
20
50
20
88
88
88
88
88
70
00
00
00
ENDCHAR
STARTCHAR Uacute
ENCODING 218
SWIDTH 480 0
DWIDTH 6 0
BBX 6 12 0 -3
BITMAP
10
20
00
88
88
88
88
88
70
00
00
00
ENDCHAR
STARTCHAR Uhungarumlaut
ENCODING 219
SWIDTH 480 0
DWIDTH 6 0
BBX 6 12 0 -3
BITMAP
48
90
00
88
88
88
88
88
70
00
00
00
ENDCHAR
STARTCHAR Udieresis
ENCODING 220
SWIDTH 480 0
DWIDTH 6 0
BBX 6 12 0 -3
BITMAP
00
50
00
88
88
88
88
88
70
00
00
00
ENDCHAR
STARTCHAR Yacute
ENCODING 221
SWIDTH 480 0
DWIDTH 6 0
BBX 6 12 0 -3
BITMAP
10
20
00
88
50
20
20
20
20
00
00
00
ENDCHAR
STARTCHAR Tcommaaccent
ENCODING 222
SWIDTH 480 0
DWIDTH 6 0
BBX 6 12 0 -3
BITMAP
00
00
F8
20
20
20
20
20
20
10
30
00
ENDCHAR
STARTCHAR germandbls
ENCODING 223
SWIDTH 480 0
DWIDTH 6 0
BBX 6 12 0 -3
BITMAP
00
30
48
48
D0
50
48
48
50
00
00
00
ENDCHAR
STARTCHAR racute
ENCODING 224
SWIDTH 480 0
DWIDTH 6 0
BBX 6 12 0 -3
BITMAP
00
10
20
00
58
60
40
40
40
00
00
00
ENDCHAR
STARTCHAR aacute
ENCODING 225
SWIDTH 480 0
DWIDTH 6 0
BBX 6 12 0 -3
BITMAP
00
10
20
00
78
88
88
98
68
00
00
00
ENDCHAR
STARTCHAR acircumflex
ENCODING 226
SWIDTH 480 0
DWIDTH 6 0
BBX 6 12 0 -3
BITMAP
00
20
50
00
78
88
88
98
68
00
00
00
ENDCHAR
STARTCHAR abreve
ENCODING 227
SWIDTH 480 0
DWIDTH 6 0
BBX 6 12 0 -3
BITMAP
00
88
70
00
78
88
88
98
68
00
00
00
ENDCHAR
STARTCHAR adieresis
ENCODING 228
SWIDTH 480 0
DWIDTH 6 0
BBX 6 12 0 -3
BITMAP
00
00
50
00
78
88
88
98
68
00
00
00
ENDCHAR
STARTCHAR lacute
ENCODING 229
SWIDTH 480 0
DWIDTH 6 0
BBX 6 12 0 -3
BITMAP
10
20
00
20
20
20
20
20
10
00
00
00
ENDCHAR
STARTCHAR cacute
ENCODING 230
SWIDTH 480 0
DWIDTH 6 0
BBX 6 12 0 -3
BITMAP
00
10
20
00
78
80
80
80
78
00
00
00
ENDCHAR
STARTCHAR ccedilla
ENCODING 231
SWIDTH 480 0
DWIDTH 6 0
BBX 6 12 0 -3
BITMAP
00
00
00
00
78
80
80
80
78
20
40
00
ENDCHAR
STARTCHAR ccaron
ENCODING 232
SWIDTH 480 0
DWIDTH 6 0
BBX 6 12 0 -3
BITMAP
00
50
20
00
78
80
80
80
78
00
00
00
ENDCHAR
STARTCHAR eacute
ENCODING 233
SWIDTH 480 0
DWIDTH 6 0
BBX 6 12 0 -3
BITMAP
00
10
20
00
70
88
F8
80
70
00
00
00
ENDCHAR
STARTCHAR eogonek
ENCODING 234
SWIDTH 480 0
DWIDTH 6 0
BBX 6 12 0 -3
BITMAP
00
00
00
00
70
88
F8
80
70
40
20
00
ENDCHAR
STARTCHAR edieresis
ENCODING 235
SWIDTH 480 0
DWIDTH 6 0
BBX 6 12 0 -3
BITMAP
00
00
50
00
70
88
F8
80
70
00
00
00
ENDCHAR
STARTCHAR ecaron
ENCODING 236
SWIDTH 480 0
DWIDTH 6 0
BBX 6 12 0 -3
BITMAP
00
50
20
00
70
88
F8
80
70
00
00
00
ENDCHAR
STARTCHAR iacute
ENCODING 237
SWIDTH 480 0
DWIDTH 6 0
BBX 6 12 0 -3
BITMAP
00
20
40
00
60
20
20
20
70
00
00
00
ENDCHAR
STARTCHAR icircumflex
ENCODING 238
SWIDTH 480 0
DWIDTH 6 0
BBX 6 12 0 -3
BITMAP
00
20
50
00
60
20
20
20
70
00
00
00
ENDCHAR
STARTCHAR dcaron
ENCODING 239
SWIDTH 480 0
DWIDTH 6 0
BBX 6 12 0 -3
BITMAP
50
20
08
08
78
88
88
88
78
00
00
00
ENDCHAR
STARTCHAR dcroat
ENCODING 240
SWIDTH 480 0
DWIDTH 6 0
BBX 6 12 0 -3
BITMAP
00
10
38
10
70
90
90
90
70
00
00
00
ENDCHAR
STARTCHAR nacute
ENCODING 241
SWIDTH 480 0
DWIDTH 6 0
BBX 6 12 0 -3
BITMAP
00
10
20
00
B0
C8
88
88
88
00
00
00
ENDCHAR
STARTCHAR ncaron
ENCODING 242
SWIDTH 480 0
DWIDTH 6 0
BBX 6 12 0 -3
BITMAP
00
50
20
00
B0
C8
88
88
88
00
00
00
ENDCHAR
STARTCHAR oacute
ENCODING 243
SWIDTH 480 0
DWIDTH 6 0
BBX 6 12 0 -3
BITMAP
00
10
20
00
70
88
88
88
70
00
00
00
ENDCHAR
STARTCHAR ocircumflex
ENCODING 244
SWIDTH 480 0
DWIDTH 6 0
BBX 6 12 0 -3
BITMAP
00
20
50
00
70
88
88
88
70
00
00
00
ENDCHAR
STARTCHAR ohungarumlaut
ENCODING 245
SWIDTH 480 0
DWIDTH 6 0
BBX 6 12 0 -3
BITMAP
00
48
90
00
70
88
88
88
70
00
00
00
ENDCHAR
STARTCHAR odieresis
ENCODING 246
SWIDTH 480 0
DWIDTH 6 0
BBX 6 12 0 -3
BITMAP
00
00
50
00
70
88
88
88
70
00
00
00
ENDCHAR
STARTCHAR divide
ENCODING 247
SWIDTH 480 0
DWIDTH 6 0
BBX 6 12 0 -3
BITMAP
00
00
00
00
20
00
F8
00
20
00
00
00
ENDCHAR
STARTCHAR rcaron
ENCODING 248
SWIDTH 480 0
DWIDTH 6 0
BBX 6 12 0 -3
BITMAP
00
28
10
00
58
60
40
40
40
00
00
00
ENDCHAR
STARTCHAR uring
ENCODING 249
SWIDTH 480 0
DWIDTH 6 0
BBX 6 12 0 -3
BITMAP
00
20
50
20
88
88
88
98
68
00
00
00
ENDCHAR
STARTCHAR uacute
ENCODING 250
SWIDTH 480 0
DWIDTH 6 0
BBX 6 12 0 -3
BITMAP
00
10
20
00
88
88
88
98
68
00
00
00
ENDCHAR
STARTCHAR uhungarumlaut
ENCODING 251
SWIDTH 480 0
DWIDTH 6 0
BBX 6 12 0 -3
BITMAP
00
48
90
00
88
88
88
98
68
00
00
00
ENDCHAR
STARTCHAR udieresis
ENCODING 252
SWIDTH 480 0
DWIDTH 6 0
BBX 6 12 0 -3
BITMAP
00
00
50
00
88
88
88
98
68
00
00
00
ENDCHAR
STARTCHAR yacute
ENCODING 253
SWIDTH 480 0
DWIDTH 6 0
BBX 6 12 0 -3
BITMAP
00
10
20
00
88
88
88
88
78
08
08
70
ENDCHAR
STARTCHAR tcommaaccent
ENCODING 254
SWIDTH 480 0
DWIDTH 6 0
BBX 6 12 0 -3
BITMAP
00
20
20
20
F8
20
20
20
18
10
30
00
ENDCHAR
STARTCHAR dotaccent
ENCODING 255
SWIDTH 480 0
DWIDTH 6 0
BBX 6 12 0 -3
BITMAP
00
20
00
00
00
00
00
00
00
00
00
00
ENDCHAR
ENDFONT
