<!--Generator: Apple Native CoreSVG 175-->
<svg version="1.1" xmlns="http://www.w3.org/2000/svg">
 <!--glyph: "uni1001FF.medium", point size: 100.0, font version: "17.3d3e1", template writer version: "65.1"-->
 <g id="Regular-S" transform="matrix(1 0 0 1 1402.53 696)">
  <path fill="#ffffff" d="M17.2852 1.12305L77.3438 1.12305Q80.2734 1.12305 82.3975-0.146484Q84.5215-1.41602 85.6689-3.54004Q86.8164-5.66406 86.8164-8.34961Q86.8164-9.52148 86.499-10.7178Q86.1816-11.9141 85.5957-12.9883L55.4688-66.8457Q54.1992-69.1895 51.9531-70.4102Q49.707-71.6309 47.3145-71.6309Q44.9219-71.6309 42.7002-70.4102Q40.4785-69.1895 39.1602-66.8457L9.13086-12.9883Q7.8125-10.5957 7.8125-8.34961Q7.8125-5.66406 8.95996-3.54004Q10.1074-1.41602 12.2314-0.146484Q14.3555 1.12305 17.2852 1.12305ZM47.3145-24.6094Q43.8965-24.6094 43.7988-28.125L43.2617-48.9258Q43.2129-50.6348 44.3604-51.7578Q45.5078-52.8809 47.3145-52.8809Q49.0723-52.8809 50.2441-51.7334Q51.416-50.5859 51.3672-48.877L50.7812-28.125Q50.6836-24.6094 47.3145-24.6094ZM47.3145-11.377Q45.459-11.377 44.0674-12.6709Q42.6758-13.9648 42.6758-15.8203Q42.6758-17.6758 44.0674-18.9941Q45.459-20.3125 47.3145-20.3125Q49.2188-20.3125 50.6104-19.0186Q52.002-17.7246 52.002-15.8203Q52.002-13.916 50.6104-12.6465Q49.2188-11.377 47.3145-11.377Z"/>
 </g>
</svg>
